<mxfile host="app.diagrams.net" modified="2024-02-05T04:20:06.080Z" agent="Mozilla/5.0 (Windows NT 10.0; Win64; x64) AppleWebKit/537.36 (KHTML, like Gecko) Chrome/121.0.0.0 Safari/537.36 Edg/121.0.0.0" etag="yFKf4X_B3c4iwUksd79H" version="23.1.1" type="device">
  <diagram name="Page-1" id="qNcyjtwBsZJRBI-C8WWJ">
    <mxGraphModel dx="999" dy="767" grid="1" gridSize="10" guides="1" tooltips="1" connect="1" arrows="1" fold="1" page="1" pageScale="1" pageWidth="827" pageHeight="1169" math="0" shadow="0">
      <root>
        <mxCell id="0" />
        <mxCell id="1" parent="0" />
        <mxCell id="h5OMFDSNZ2PF-LfENmex-2" value="&lt;p style=&quot;margin:0px;margin-top:4px;text-align:center;&quot;&gt;&lt;i&gt;&amp;lt;&amp;lt;Interface&amp;gt;&amp;gt;&lt;/i&gt;&lt;br&gt;MarkdownService&lt;br&gt;&lt;/p&gt;&lt;hr size=&quot;1&quot;&gt;&lt;p style=&quot;margin:0px;margin-left:4px;&quot;&gt;&lt;br&gt;&lt;/p&gt;&lt;hr size=&quot;1&quot;&gt;&lt;p style=&quot;margin:0px;margin-left:4px;&quot;&gt;+&amp;nbsp;convertToHtml(): string&lt;/p&gt;" style="verticalAlign=top;align=left;overflow=fill;fontSize=12;fontFamily=Helvetica;html=1;whiteSpace=wrap;" vertex="1" parent="1">
          <mxGeometry x="140" y="100" width="190" height="100" as="geometry" />
        </mxCell>
        <mxCell id="h5OMFDSNZ2PF-LfENmex-4" value="Extends" style="endArrow=block;endSize=16;endFill=0;html=1;rounded=0;exitX=0.5;exitY=1;exitDx=0;exitDy=0;" edge="1" parent="1" source="h5OMFDSNZ2PF-LfENmex-2">
          <mxGeometry width="160" relative="1" as="geometry">
            <mxPoint x="280" y="280" as="sourcePoint" />
            <mxPoint x="235" y="340" as="targetPoint" />
          </mxGeometry>
        </mxCell>
        <mxCell id="h5OMFDSNZ2PF-LfENmex-5" value="Express server" style="html=1;whiteSpace=wrap;" vertex="1" parent="1">
          <mxGeometry x="140" y="340" width="190" height="110" as="geometry" />
        </mxCell>
        <mxCell id="h5OMFDSNZ2PF-LfENmex-7" value="React Frontend" style="html=1;whiteSpace=wrap;" vertex="1" parent="1">
          <mxGeometry x="390" y="340" width="190" height="110" as="geometry" />
        </mxCell>
        <mxCell id="h5OMFDSNZ2PF-LfENmex-8" value="" style="endArrow=block;dashed=1;endFill=0;endSize=12;html=1;rounded=0;exitX=0.5;exitY=1;exitDx=0;exitDy=0;" edge="1" parent="1" source="h5OMFDSNZ2PF-LfENmex-5" target="h5OMFDSNZ2PF-LfENmex-9">
          <mxGeometry width="160" relative="1" as="geometry">
            <mxPoint x="280" y="560" as="sourcePoint" />
            <mxPoint x="235" y="620" as="targetPoint" />
          </mxGeometry>
        </mxCell>
        <mxCell id="h5OMFDSNZ2PF-LfENmex-9" value="/markdown" style="html=1;whiteSpace=wrap;" vertex="1" parent="1">
          <mxGeometry x="140" y="595" width="190" height="65" as="geometry" />
        </mxCell>
        <mxCell id="h5OMFDSNZ2PF-LfENmex-11" value="" style="endArrow=block;dashed=1;endFill=0;endSize=12;html=1;rounded=0;exitX=0.5;exitY=1;exitDx=0;exitDy=0;" edge="1" parent="1">
          <mxGeometry width="160" relative="1" as="geometry">
            <mxPoint x="484.5" y="450" as="sourcePoint" />
            <mxPoint x="484.5" y="595" as="targetPoint" />
          </mxGeometry>
        </mxCell>
        <mxCell id="h5OMFDSNZ2PF-LfENmex-12" value="App.js" style="html=1;whiteSpace=wrap;" vertex="1" parent="1">
          <mxGeometry x="400" y="595" width="190" height="65" as="geometry" />
        </mxCell>
        <mxCell id="h5OMFDSNZ2PF-LfENmex-13" value="Use" style="endArrow=open;endSize=12;dashed=1;html=1;rounded=0;" edge="1" parent="1">
          <mxGeometry width="160" relative="1" as="geometry">
            <mxPoint x="240" y="490" as="sourcePoint" />
            <mxPoint x="480" y="490" as="targetPoint" />
          </mxGeometry>
        </mxCell>
        <mxCell id="h5OMFDSNZ2PF-LfENmex-14" value="POST /markdown" style="edgeLabel;html=1;align=center;verticalAlign=middle;resizable=0;points=[];" vertex="1" connectable="0" parent="h5OMFDSNZ2PF-LfENmex-13">
          <mxGeometry x="-0.0375" y="9" relative="1" as="geometry">
            <mxPoint as="offset" />
          </mxGeometry>
        </mxCell>
        <mxCell id="h5OMFDSNZ2PF-LfENmex-15" value="Use" style="endArrow=open;endSize=12;dashed=1;html=1;rounded=0;" edge="1" parent="1">
          <mxGeometry width="160" relative="1" as="geometry">
            <mxPoint x="480" y="490" as="sourcePoint" />
            <mxPoint x="720" y="490" as="targetPoint" />
            <mxPoint as="offset" />
          </mxGeometry>
        </mxCell>
        <mxCell id="h5OMFDSNZ2PF-LfENmex-16" value="onChange" style="edgeLabel;html=1;align=center;verticalAlign=middle;resizable=0;points=[];" vertex="1" connectable="0" parent="h5OMFDSNZ2PF-LfENmex-15">
          <mxGeometry x="-0.0375" y="9" relative="1" as="geometry">
            <mxPoint as="offset" />
          </mxGeometry>
        </mxCell>
        <mxCell id="h5OMFDSNZ2PF-LfENmex-21" value="" style="endArrow=none;dashed=1;html=1;dashPattern=1 3;strokeWidth=2;rounded=0;exitX=0.5;exitY=1;exitDx=0;exitDy=0;startArrow=classicThin;startFill=1;" edge="1" parent="1" source="h5OMFDSNZ2PF-LfENmex-9">
          <mxGeometry width="50" height="50" relative="1" as="geometry">
            <mxPoint x="240" y="720" as="sourcePoint" />
            <mxPoint x="720.9090909090909" y="490" as="targetPoint" />
            <Array as="points">
              <mxPoint x="235" y="720" />
              <mxPoint x="721" y="720" />
            </Array>
          </mxGeometry>
        </mxCell>
      </root>
    </mxGraphModel>
  </diagram>
</mxfile>
